<svg class = "line" viewBox="0 0 1920 1080" preserveAspectRatio="xMidYMid slice" xmlns="http://www.w3.org/2000/svg">
    <style>

        #interactive-layer{
            stroke-width: 50;
            stroke: transparent;
        }

        #paths{
            stroke: lightgray;
            fill: none;
        }

        @media (prefers-reduced-motion: reduce) {
            #round-1, #round-2, #round-3, #round-4 { animation: none; }
        }

        #round-1, #round-2, #round-3, #round-4{
            will-change: stroke-dashoffset;
            stroke: #4e91fd8f;
            stroke-width: 4;
            stroke-opacity: 0.3;
            fill: none;
            stroke-dasharray: 60 1000;
            stroke-dashoffset: 60;
            filter: url(#glow);
            stroke-linecap: round;
            animation: animate-pulse 5s linear infinite;
    
        }
        @keyframes animate-pulse{
            0%{
                stroke-dashoffset: 60;
            }
            40%{
                stroke-dashoffset: -1000;
            }
            100%{
                stroke-dashoffset: -1000;
            }
        }
        #round-1{
            animation-delay: 1s;
        }
        #round-2{
            animation-delay: 2.4s;
        }
        #round-3{
            animation-delay: 3.8s;
        }
        #round-4{
            animation-delay: 5.1s;
        }

        #chipPulses{
            stroke: #4e91fd8f;
            stroke-width: 4;
            fill: none;
            stroke-dasharray: 60 1000;
            stroke-dashoffset: 60;
            filter: url(#glow);
            stroke-opacity: 0.3;
            stroke-linecap: round;
        }

        .chip{
            stroke: lightgray;
            fill: white;
            transition:0.6s;
        }
        .chip:hover{
            stroke: #4e91fd8f;
            stroke-opacity: 0.3;
            
            filter: url(#glow);
            stroke-width: 3;
            transition: 0.1s;
        }
    </style>

    <defs>
        <filter id="glow">
            <feGaussianBlur stdDeviation="2.5" result="blur"/>
            <feMerge><feMergeNode in="blur"/><feMergeNode in="SourceGraphic"/></feMerge>
        </filter>
    </defs>

    <g id="chipPulses">
        <g id="chip-06-pulses">
            <path style="fill: none;" d="M 310.215 530.048 L 310 470 L 360 420 L 360 330 L 450 240 L 640 240" id="path-06"></path>
            <path style="fill: none;" d="M 330.076 529.974 L 330 480 L 380 430 L 380 340 L 460 260 L 640 260" id="path-07"></path>
            <path style="fill: none;" d="M 350.175 530.216 L 350 490 L 400 440 L 400 350 L 470 280 L 640 280" id="path-08"></path>
            <path style="fill: none;" d="M 370.202 530.063 L 370 500 L 420 450 L 420 360 L 480 300 L 640 300" id="path-09"></path>
            <path style="fill: none;" d="M 390.058 530.063 L 390 510 L 440 460 L 440 370 L 490 320 L 640 320" id="path-10"></path>
            <path style="fill: none;" d="M 400.032 540.214 L 410 530.216 L 410 520 L 460 470 L 510 470" id="path-11"></path>

            <path style="fill: none;" d="M 300.019 539.767 L 230 540 L 210 520 L 0 520" id="path-01"></path>
            <path style="fill: none;" d="M 300.082 559.828 L 140 560 L 120 540 L 0 540" id="path-02"></path>
            <path style="fill: none;" d="M 300.493 579.736 L 0 580" id="path-03"></path>
            <path style="fill: none;" d="M 300.7 600.194 L 180 600 L 160 619.965 L 30 619.965" id="path-04"></path>
            <path style="fill: none;" d="M 300.204 620.371 L 190 620 L 170 640 L 120 640 L 80 680" id="path-05"></path>

            <path style="fill: none;" d="M 310.046 630.049 L 310 750 L 450 890 L 511.875 890 L 780 890" id="path-76"></path>
            <path style="fill: none;" d="M 330.034 630.032 L 330 740 L 460 870 L 780 870" id="path-77"></path>
            <path style="fill: none;" d="M 350.032 630.083 L 350 730 L 470 850 L 780 850" id="path-78"></path>
            <path style="fill: none;" d="M 370.165 630.121 L 370 720.016 L 480 830 L 780 830" id="path-79"></path>
            <path style="fill: none;" d="M 390.126 630.033 L 390 710 L 490 810 L 780 810" id="path-80"></path>
            <path style="fill: none;" d="M 400.267 619.965 L 410 630.032 L 410 700 L 500 790 L 540 790 L 560 770" id="path-82"></path>
        </g>

        <g id="chip-01-pulses">
            <path style="fill: none;" d="M 640 240 L 450 240 L 360 330 L 360 420 L 310 470 L 310.215 530.048" id="path-06"></path>
            <path style="fill: none;" d="M 640 260 L 460 260 L 380 340 L 380 430 L 330 480 L 330.076 529.974" id="path-07"></path>
            <path style="fill: none;" d="M 640 280 L 470 280 L 400 350 L 400 440 L 350 490 L 350.175 530.216" id="path-08"></path>
            <path style="fill: none;" d="M 640 300 L 480 300 L 420 360 L 420 450 L 370 500 L 370.202 530.063" id="path-09"></path>
            <path style="fill: none;" d="M 640 320 L 490 320 L 440 370 L 440 460 L 390 510 L 390.058 530.063" id="path-10"></path>
            <path style="fill: none;" d="M 650.07 329.894 L 640 340 L 500 340 L 480 360 L 480 410" id="path-12"></path>

            <path style="fill: none;" d="M 649.958 230.027 L 650 190 L 610 150 L 610 100 L 570 60 L 570 0" id="path-13"></path>
            <path style="fill: none;" d="M 670.074 229.97 L 670 180 L 630 140 L 630 90 L 630 0" id="path-14"></path>
            <path style="fill: none;" d="M 689.929 230.059 L 690 140 L 670 120 L 670 70 L 689.672 50 L 689.672 0" id="path-15"></path>
            <path style="fill: none;" d="M 710.118 229.892 L 710 100 L 730 80" id="path-16"></path>
            <path style="fill: none;" d="M 730.137 229.986 L 730 110 L 750 90 L 750 20 L 730 0" id="path-17"></path>

            <path style="fill: none;" d="M 739.557 240.129 L 830 240 L 890 180 L 1020 180" id="path-18"></path>
            <path style="fill: none;" d="M 739.367 260.16 L 840 260 L 900 200 L 1020 200" id="path-19"></path>
            <path style="fill: none;" d="M 739.619 280.033 L 850 280 L 910 220 L 1020 220" id="path-20"></path>
            <path style="fill: none;" d="M 739.54 300.009 L 860 300 L 920 240.129 L 1020 240 L 1030 230.08" id="path-21"></path>
            <path style="fill: none;" d="M 739.556 319.814 L 870 320 L 930 260 L 970 260 L 990 280.033 L 1020 280" id="path-22"></path>
        </g>

        <g id="chip-02-pulses">
            <path style="fill: none;" d="M 1020 180 L 890 180 L 830 240 L 739.557 240.129" id="path-18"></path>
            <path style="fill: none;" d="M 1020 200 L 900 200 L 840 260 L 739.367 260.16" id="path-19"></path>
            <path style="fill: none;" d="M 1020 220 L 910 220 L 850 280 L 739.619 280.033" id="path-20"></path>
            <path style="fill: none;" d="M 1030 230.08 L 1020 240 L 920 240.129 L 860 300 L 739.54 300.009" id="path-21"></path>

            <path style="fill: none;" d="M 1030.033 169.917 L 1030 150 L 970 90 L 970 0" id="path-23"></path>
            <path style="fill: none;" d="M 1050.064 170.1 L 1050 140 L 990 80 L 990 40 L 1010 20 L 1010 0" id="path-24"></path>
            <path style="fill: none;" d="M 1070.268 169.878 L 1070 130 L 1030 90 L 1030 0" id="path-25"></path>
            <path style="fill: none;" d="M 1090.098 170.09 L 1090 120 L 1070.268 100 L 1070 50" id="path-26"></path>
            <path style="fill: none;" d="M 1110.057 170.106 L 1110 50 L 1090.098 30" id="path-27"></path>
            <path style="fill: none;" d="M 1130.191 169.914 L 1130 70 L 1150 50 L 1149.996 0" id="path-28"></path>

            <path style="fill: none;" d="M 1149.996 170.131 L 1160 160 L 1470 160 L 1530 220 L 1530 290" id="path-29"></path>
            <path style="fill: none;" d="M 1160.2 179.929 L 1460 180 L 1510 230 L 1510 290" id="path-30"></path>
            <path style="fill: none;" d="M 1160.13 200.013 L 1450 200 L 1490 240 L 1490 290" id="path-31"></path>
            <path style="fill: none;" d="M 1160.15 220.031 L 1440 220 L 1470 250 L 1470 290" id="path-32"></path>
            <path style="fill: none;" d="M 1150.162 230.195 L 1160.2 240 L 1200 240 L 1220 260" id="path-33"></path>
            <path style="fill: none;" d="M 1130.087 229.999 L 1130 240 L 1150 260 L 1190 260.16 L 1210 280" id="path-34"></path>
        </g>

        <g id="chip-03-pulses">
            <path style="fill: none;" d="M 1530 290 L 1530 220 L 1470 160 L 1160 160 L 1149.996 170.131" id="path-29"></path>
            <path style="fill: none;" d="M 1510 290 L 1510 230 L 1460 180 L 1160.2 179.929" id="path-30"></path>
            <path style="fill: none;" d="M 1490 290 L 1490 240 L 1450 200 L 1160.13 200.013" id="path-31"></path>
            <path style="fill: none;" d="M 1470 290 L 1470 250 L 1440 220 L 1160.15 220.031" id="path-32"></path>

            <path style="fill: none;" d="M 1550.158 289.948 L 1550 210 L 1530 190 L 1530 140 L 1550 120" id="path-35"></path>
            <path style="fill: none;" d="M 1570.16 289.994 L 1570 200 L 1550 179.929 L 1550.158 150 L 1570 130 L 1570 110" id="path-36"></path>
            <path style="fill: none;" d="M 1459.991 300.161 L 1420 300 L 1380 260 L 1340 260" id="path-37"></path>
            <path style="fill: none;" d="M 1460.012 320.082 L 1410 320 L 1370 280 L 1330 280" id="path-38"></path>
            <path style="fill: none;" d="M 1460.221 340.084 L 1400 340 L 1360 380 L 1330 380" id="path-39"></path>
            <path style="fill: none;" d="M 1580.456 300.123 L 1640 300 L 1680 260 L 1770 260 L 1790 280 L 1840 280" id="path-40"></path>
            <path style="fill: none;" d="M 1580.11 320.094 L 1770 320 L 1790 300 L 1920 300" id="path-41"></path>
            <path style="fill: none;" d="M 1580 340 L 1780 340 L 1800 320.094 L 1920 320.094" id="path-42"></path>
            <path style="fill: none;" d="M 1580.216 359.942 L 1850 360 L 1870 380 L 1920 380" id="path-43"></path>
            <path style="fill: none;" d="M 1579.947 379.989 L 1840 380 L 1860 400 L 1920 400" id="path-44"></path>
            <path style="fill: none;" d="M 1580.252 400.061 L 1620 400 L 1640 420 L 1680 420 L 1700 400 L 1830 400 L 1850 420 L 1920.01 420" id="path-45"></path>
            <path style="fill: none;" d="M 1470.157 410.319 L 1470 530 L 1500 560 L 1500 580 L 1470 610.013" id="path-46"></path>
            <path style="fill: none;" d="M 1490.083 410.215 L 1490 520 L 1520 550 L 1520 590 L 1490 620" id="path-47"></path>
            <path style="fill: none;" d="M 1510.127 410.281 L 1510 510 L 1540 540 L 1540 610 L 1550 620" id="path-48"></path>
            <path style="fill: none;" d="M 1530.1 409.939 L 1530 500 L 1560 530 L 1560 610" id="path-49"></path>
            <path style="fill: none;" d="M 1550.12 409.864 L 1550 490 L 1580 520 L 1580 610" id="path-50"></path>
            <path style="fill: none;" d="M 1570.59 410.338 L 1570 480 L 1600 510 L 1600 610" id="path-51"></path>
        </g>

        <g id="chip-04-pulses">
            <path style="fill: none;" d="M 1550 620 L 1540 610 L 1540 540 L 1510 510 L 1510.127 410.281" id="path-48"></path>
            <path style="fill: none;" d="M 1560 610 L 1560 530 L 1530 500 L 1530.1 409.939" id="path-49"></path>
            <path style="fill: none;" d="M 1580 610 L 1580 520 L 1550 490 L 1550.12 409.864" id="path-50"></path>
            <path style="fill: none;" d="M 1600 610 L 1600 510 L 1570 480 L 1570.59 410.338" id="path-51"></path>
            <path style="fill: none;" d="M 1610.016 620.07 L 1770 620 L 1800 650 L 1920 650" id="path-52"></path>
            <path style="fill: none;" d="M 1610.293 639.93 L 1660 640 L 1690 670 L 1920 670" id="path-53"></path>
            <path style="fill: none;" d="M 1610.348 660.109 L 1650 660 L 1680 690 L 1820 690 L 1840 710 L 1920 710" id="path-54"></path>
            <path style="fill: none;" d="M 1610.221 680.087 L 1640 680 L 1700 740 L 1700 800.006 L 1740 840 L 1780 840" id="path-55"></path>
            <path style="fill: none;" d="M 1610.267 700.046 L 1630 700 L 1680 750 L 1680 810 L 1720 850" id="path-56"></path>
            <path style="fill: none;" d="M 1610.18 719.985 L 1620 720 L 1660 760 L 1660 810 L 1620 850 L 1560 850 L 1520 800 L 1320 800 L 1230 890 L 960 890" id="path-57"></path>
            <path style="fill: none;" d="M 1600.01 730.012 L 1600 750 L 1570 780 L 1310 780 L 1220 870 L 960 870" id="path-58"></path>
            <path style="fill: none;" d="M 1580.05 730.114 L 1580 740 L 1560 760 L 1300 760 L 1210 850 L 960 850" id="path-59"></path>
            <path style="fill: none;" d="M 1560.12 730.427 L 1550 740 L 1290 740 L 1200 830 L 960 830" id="path-60"></path>
            <path style="fill: none;" d="M 1550.12 719.972 L 1280 720 L 1190 810 L 960 810" id="path-61"></path>
        </g>

        <g id="chip-05-pulses">
            <path style="fill: none;" d="M 960 890 L 1230 890 L 1320 800 L 1520 800 L 1560 850 L 1620 850 L 1660 810 L 1660 760 L 1620 720 L 1610.18 719.985" id="path-57"></path>
            <path style="fill: none;" d="M 960 870 L 1220 870 L 1310 780 L 1570 780 L 1600 750 L 1600.01 730.012" id="path-58"></path>
            <path style="fill: none;" d="M 960 850 L 1210 850 L 1300 760 L 1560 760 L 1580 740 L 1580.05 730.114" id="path-59"></path>
            <path style="fill: none;" d="M 960 830 L 1200 830 L 1290 740 L 1550 740 L 1560.12 730.427" id="path-60"></path>
            <path style="fill: none;" d="M 960 810 L 1190 810 L 1280 720 L 1550.12 719.972" id="path-61"></path>
            <path style="fill: none;" d="M 960.018 910.011 L 1040 910 L 1050 920 L 1150 920 L 1160 910 L 1240 910 L 1300 850" id="path-62"></path>
            <path style="fill: none;" d="M 960.286 929.893 L 980.021 930 L 1030 980 L 1030 1040 L 1070 1080" id="path-63"></path>

            <path style="fill: none;" d="M 960.349 949.984 L 970 950 L 1010 990 L 1010 1080" id="path-64"></path>
            <path style="fill: none;" d="M 940.206 969.989 L 940 990 L 990 1040 L 990 1080" id="path-65"></path>
            <path style="fill: none;" d="M 920.069 970.136 L 920 1000 L 970 1050 L 970 1070" id="path-66"></path>
            <path style="fill: none;" d="M 900.134 970.102 L 900 1010 L 950 1060 L 950 1070" id="path-67"></path>
            <path style="fill: none;" d="M 880.221 970.046 L 880 1080" id="path-68"></path>
            <path style="fill: none;" d="M 860.288 970.334 L 860 1010 L 840 1030 L 840 1050 L 860 1070 L 860 1080" id="path-69"></path>
            <path style="fill: none;" d="M 840.042 969.963 L 840 1000 L 820 1020 L 820 1080" id="path-70"></path>
            <path style="fill: none;" d="M 820.182 970.227 L 820 990 L 800 1010 L 800 1060" id="path-71"></path>
            <path style="fill: none;" d="M 800.19 970.14 L 800 980 L 790 990 L 760 990 L 740 970.334 L 690 969.906 L 640 1020 L 570 1020 L 510 1080" id="path-72"></path>
            <path style="fill: none;" d="M 780.345 950.066 L 680 949.936 L 630 1000 L 560 1000 L 480 1080" id="path-73"></path>
            <path style="fill: none;" d="M 780.132 929.97 L 460 930 L 410 980" id="path-74"></path>
            <path style="fill: none;" d="M 780.12 909.946 L 450 910 L 400 960" id="path-75"></path>
            <path style="fill: none;" d="M 780 890 L 511.875 890 L 450 890 L 310 750 L 310.046 630.049" id="path-76"></path>
            <path style="fill: none;" d="M 780 870 L 460 870 L 330 740 L 330.034 630.032" id="path-77"></path>
            <path style="fill: none;" d="M 780 850 L 470 850 L 350 730 L 350.032 630.083" id="path-78"></path>
            <path style="fill: none;" d="M 780 830 L 480 830 L 370 720.016 L 370.165 630.121" id="path-79"></path>
            <path style="fill: none;" d="M 780 810 L 490 810 L 390 710 L 390.126 630.033" id="path-80"></path>
            <path style="fill: none;" d="M 800.334 790.236 L 780 770 L 760 770 L 740 790 L 630 790 L 610 770" id="path-81"></path>

        </g>

    </g>

    <g id="pulses">
        <g id="round-1">
            <path style="fill: none;" d="M 330.076 529.974 L 330 480 L 380 430 L 380 340 L 460 260 L 640 260" id="path-07"></path>
            <path style="fill: none;" d="M 370.202 530.063 L 370 500 L 420 450 L 420 360 L 480 300 L 640 300" id="path-09"></path>

            <path style="fill: none;" d="M 1600.01 730.012 L 1600 750 L 1570 780 L 1310 780 L 1220 870 L 960 870" id="path-58"></path>
            <path style="fill: none;" d="M 1560.12 730.427 L 1550 740 L 1290 740 L 1200 830 L 960 830" id="path-60"></path>

            <path style="fill: none;" d="M 1160.2 179.929 L 1460 180 L 1510 230 L 1510 290" id="path-30"></path>
            <path style="fill: none;" d="M 1160.15 220.031 L 1440 220 L 1470 250 L 1470 290" id="path-32"></path>
        </g>
        <g id="round-2">
            <path style="fill: none;" d="M 739.367 260.16 L 840 260 L 900 200 L 1020 200" id="path-19"></path>
            <path style="fill: none;" d="M 739.54 300.009 L 860 300 L 920 240.129 L 1020 240 L 1030 230.08" id="path-21"></path>

            <path style="fill: none;" d="M 780 870 L 460 870 L 330 740 L 330.034 630.032" id="path-77"></path>
            <path style="fill: none;" d="M 780 830 L 480 830 L 370 720.016 L 370.165 630.121" id="path-79"></path>

            <path style="fill: none;" d="M 1510.127 410.281 L 1510 510 L 1540 540 L 1540 610 L 1550 620" id="path-48"></path>
            <path style="fill: none;" d="M 1550.12 409.864 L 1550 490 L 1580 520 L 1580 610" id="path-50"></path>
        </g>
        <g id="round-3">
            <path style="fill: none;" d="M 310.215 530.048 L 310 470 L 360 420 L 360 330 L 450 240 L 640 240" id="path-06"></path>
            <path style="fill: none;" d="M 350.175 530.216 L 350 490 L 400 440 L 400 350 L 470 280 L 640 280" id="path-08"></path>
            <path style="fill: none;" d="M 390.058 530.063 L 390 510 L 440 460 L 440 370 L 490 320 L 640 320" id="path-10"></path>

            <path style="fill: none;" d="M 1610.18 719.985 L 1620 720 L 1660 760 L 1660 810 L 1620 850 L 1560 850 L 1520 800 L 1320 800 L 1230 890 L 960 890" id="path-57"></path>
            <path style="fill: none;" d="M 1580.05 730.114 L 1580 740 L 1560 760 L 1300 760 L 1210 850 L 960 850" id="path-59"></path>
            <path style="fill: none;" d="M 1550.12 719.972 L 1280 720 L 1190 810 L 960 810" id="path-61"></path>

            <path style="fill: none;" d="M 1149.996 170.131 L 1160 160 L 1470 160 L 1530 220 L 1530 290" id="path-29"></path>
            <path style="fill: none;" d="M 1160.13 200.013 L 1450 200 L 1490 240 L 1490 290" id="path-31"></path>
        </g>
        <g id="round-4">
            <path style="fill: none;" d="M 739.557 240.129 L 830 240 L 890 180 L 1020 180" id="path-18"></path>
            <path style="fill: none;" d="M 739.619 280.033 L 850 280 L 910 220 L 1020 220" id="path-20"></path>
            <path style="fill: none;" d="M 739.556 319.814 L 870 320 L 930 260 L 970 260 L 990 280.033 L 1020 280" id="path-22"></path>

            <path style="fill: none;" d="M 1530.1 409.939 L 1530 500 L 1560 530 L 1560 610" id="path-49"></path>
            <path style="fill: none;" d="M 1570.59 410.338 L 1570 480 L 1600 510 L 1600 610" id="path-51"></path>

            <path style="fill: none;" d="M 780 890 L 511.875 890 L 450 890 L 310 750 L 310.046 630.049" id="path-76"></path>
            <path style="fill: none;" d="M 780 850 L 470 850 L 350 730 L 350.032 630.083" id="path-78"></path>
            <path style="fill: none;" d="M 780 810 L 490 810 L 390 710 L 390.126 630.033" id="path-80"></path>
        </g>
    </g>

    <g id="paths"> 
        <path style="fill: none;" d="M 300.019 539.767 L 230 540 L 210 520 L 0 520" id="path-01"></path>
        <path style="fill: none;" d="M 300.082 559.828 L 140 560 L 120 540 L 0 540" id="path-02"></path>
        <path style="fill: none;" d="M 300.493 579.736 L 0 580" id="path-03"></path>
        <path style="fill: none;" d="M 300.7 600.194 L 180 600 L 160 619.965 L 30 619.965" id="path-04"></path>
        <path style="fill: none;" d="M 300.204 620.371 L 190 620 L 170 640 L 120 640 L 80 680" id="path-05"></path>
        <path style="fill: none;" d="M 310.215 530.048 L 310 470 L 360 420 L 360 330 L 450 240 L 640 240" id="path-06"></path>
        <path style="fill: none;" d="M 330.076 529.974 L 330 480 L 380 430 L 380 340 L 460 260 L 640 260" id="path-07"></path>
        <path style="fill: none;" d="M 350.175 530.216 L 350 490 L 400 440 L 400 350 L 470 280 L 640 280" id="path-08"></path>
        <path style="fill: none;" d="M 370.202 530.063 L 370 500 L 420 450 L 420 360 L 480 300 L 640 300" id="path-09"></path>
        <path style="fill: none;" d="M 390.058 530.063 L 390 510 L 440 460 L 440 370 L 490 320 L 640 320" id="path-10"></path>
        <path style="fill: none;" d="M 400.032 540.214 L 410 530.216 L 410 520 L 460 470 L 510 470" id="path-11"></path>
        <path style="fill: none;" d="M 650.07 329.894 L 640 340 L 500 340 L 480 360 L 480 410" id="path-12"></path>
        <path style="fill: none;" d="M 649.958 230.027 L 650 190 L 610 150 L 610 100 L 570 60 L 570 0" id="path-13"></path>
        <path style="fill: none;" d="M 670.074 229.97 L 670 180 L 630 140 L 630 90 L 630 0" id="path-14"></path>
        <path style="fill: none;" d="M 689.929 230.059 L 690 140 L 670 120 L 670 70 L 689.672 50 L 689.672 0" id="path-15"></path>
        <path style="fill: none;" d="M 710.118 229.892 L 710 100 L 730 80" id="path-16"></path>
        <path style="fill: none;" d="M 730.137 229.986 L 730 110 L 750 90 L 750 20 L 730 0" id="path-17"></path>
        <path style="fill: none;" d="M 739.557 240.129 L 830 240 L 890 180 L 1020 180" id="path-18"></path>
        <path style="fill: none;" d="M 739.367 260.16 L 840 260 L 900 200 L 1020 200" id="path-19"></path>
        <path style="fill: none;" d="M 739.619 280.033 L 850 280 L 910 220 L 1020 220" id="path-20"></path>
        <path style="fill: none;" d="M 739.54 300.009 L 860 300 L 920 240.129 L 1020 240 L 1030 230.08" id="path-21"></path>
        <path style="fill: none;" d="M 739.556 319.814 L 870 320 L 930 260 L 970 260 L 990 280.033 L 1020 280" id="path-22"></path>
        <path style="fill: none;" d="M 1030.033 169.917 L 1030 150 L 970 90 L 970 0" id="path-23"></path>
        <path style="fill: none;" d="M 1050.064 170.1 L 1050 140 L 990 80 L 990 40 L 1010 20 L 1010 0" id="path-24"></path>
        <path style="fill: none;" d="M 1070.268 169.878 L 1070 130 L 1030 90 L 1030 0" id="path-25"></path>
        <path style="fill: none;" d="M 1090.098 170.09 L 1090 120 L 1070.268 100 L 1070 50" id="path-26"></path>
        <path style="fill: none;" d="M 1110.057 170.106 L 1110 50 L 1090.098 30" id="path-27"></path>
        <path style="fill: none;" d="M 1130.191 169.914 L 1130 70 L 1150 50 L 1149.996 0" id="path-28"></path>
        <path style="fill: none;" d="M 1149.996 170.131 L 1160 160 L 1470 160 L 1530 220 L 1530 290" id="path-29"></path>
        <path style="fill: none;" d="M 1160.2 179.929 L 1460 180 L 1510 230 L 1510 290" id="path-30"></path>
        <path style="fill: none;" d="M 1160.13 200.013 L 1450 200 L 1490 240 L 1490 290" id="path-31"></path>
        <path style="fill: none;" d="M 1160.15 220.031 L 1440 220 L 1470 250 L 1470 290" id="path-32"></path>
        <path style="fill: none;" d="M 1150.162 230.195 L 1160.2 240 L 1200 240 L 1220 260" id="path-33"></path>
        <path style="fill: none;" d="M 1130.087 229.999 L 1130 240 L 1150 260 L 1190 260.16 L 1210 280" id="path-34"></path>
        <path style="fill: none;" d="M 1550.158 289.948 L 1550 210 L 1530 190 L 1530 140 L 1550 120" id="path-35"></path>
        <path style="fill: none;" d="M 1570.16 289.994 L 1570 200 L 1550 179.929 L 1550.158 150 L 1570 130 L 1570 110" id="path-36"></path>
        <path style="fill: none;" d="M 1459.991 300.161 L 1420 300 L 1380 260 L 1340 260" id="path-37"></path>
        <path style="fill: none;" d="M 1460.012 320.082 L 1410 320 L 1370 280 L 1330 280" id="path-38"></path>
        <path style="fill: none;" d="M 1460.221 340.084 L 1400 340 L 1360 380 L 1330 380" id="path-39"></path>
        <path style="fill: none;" d="M 1580.456 300.123 L 1640 300 L 1680 260 L 1770 260 L 1790 280 L 1840 280" id="path-40"></path>
        <path style="fill: none;" d="M 1580.11 320.094 L 1770 320 L 1790 300 L 1920 300" id="path-41"></path>
        <path style="fill: none;" d="M 1580 340 L 1780 340 L 1800 320.094 L 1920 320.094" id="path-42"></path>
        <path style="fill: none;" d="M 1580.216 359.942 L 1850 360 L 1870 380 L 1920 380" id="path-43"></path>
        <path style="fill: none;" d="M 1579.947 379.989 L 1840 380 L 1860 400 L 1920 400" id="path-44"></path>
        <path style="fill: none;" d="M 1580.252 400.061 L 1620 400 L 1640 420 L 1680 420 L 1700 400 L 1830 400 L 1850 420 L 1920.01 420" id="path-45"></path>
        <path style="fill: none;" d="M 1470.157 410.319 L 1470 530 L 1500 560 L 1500 580 L 1470 610.013" id="path-46"></path>
        <path style="fill: none;" d="M 1490.083 410.215 L 1490 520 L 1520 550 L 1520 590 L 1490 620" id="path-47"></path>
        <path style="fill: none;" d="M 1510.127 410.281 L 1510 510 L 1540 540 L 1540 610 L 1550 620" id="path-48"></path>
        <path style="fill: none;" d="M 1530.1 409.939 L 1530 500 L 1560 530 L 1560 610" id="path-49"></path>
        <path style="fill: none;" d="M 1550.12 409.864 L 1550 490 L 1580 520 L 1580 610" id="path-50"></path>
        <path style="fill: none;" d="M 1570.59 410.338 L 1570 480 L 1600 510 L 1600 610" id="path-51"></path>
        <path style="fill: none;" d="M 1610.016 620.07 L 1770 620 L 1800 650 L 1920 650" id="path-52"></path>
        <path style="fill: none;" d="M 1610.293 639.93 L 1660 640 L 1690 670 L 1920 670" id="path-53"></path>
        <path style="fill: none;" d="M 1610.348 660.109 L 1650 660 L 1680 690 L 1820 690 L 1840 710 L 1920 710" id="path-54"></path>
        <path style="fill: none;" d="M 1610.221 680.087 L 1640 680 L 1700 740 L 1700 800.006 L 1740 840 L 1780 840" id="path-55"></path>
        <path style="fill: none;" d="M 1610.267 700.046 L 1630 700 L 1680 750 L 1680 810 L 1720 850" id="path-56"></path>
        <path style="fill: none;" d="M 1610.18 719.985 L 1620 720 L 1660 760 L 1660 810 L 1620 850 L 1560 850 L 1520 800 L 1320 800 L 1230 890 L 960 890" id="path-57"></path>
        <path style="fill: none;" d="M 1600.01 730.012 L 1600 750 L 1570 780 L 1310 780 L 1220 870 L 960 870" id="path-58"></path>
        <path style="fill: none;" d="M 1580.05 730.114 L 1580 740 L 1560 760 L 1300 760 L 1210 850 L 960 850" id="path-59"></path>
        <path style="fill: none;" d="M 1560.12 730.427 L 1550 740 L 1290 740 L 1200 830 L 960 830" id="path-60"></path>
        <path style="fill: none;" d="M 1550.12 719.972 L 1280 720 L 1190 810 L 960 810" id="path-61"></path>
        <path style="fill: none;" d="M 960.018 910.011 L 1040 910 L 1050 920 L 1150 920 L 1160 910 L 1240 910 L 1300 850" id="path-62"></path>
        <path style="fill: none;" d="M 960.286 929.893 L 980.021 930 L 1030 980 L 1030 1040 L 1070 1080" id="path-63"></path>
        <path style="fill: none;" d="M 960.349 949.984 L 970 950 L 1010 990 L 1010 1080" id="path-64"></path>
        <path style="fill: none;" d="M 940.206 969.989 L 940 990 L 990 1040 L 990 1080" id="path-65"></path>
        <path style="fill: none;" d="M 920.069 970.136 L 920 1000 L 970 1050 L 970 1070" id="path-66"></path>
        <path style="fill: none;" d="M 900.134 970.102 L 900 1010 L 950 1060 L 950 1070" id="path-67"></path>
        <path style="fill: none;" d="M 880.221 970.046 L 880 1080" id="path-68"></path>
        <path style="fill: none;" d="M 860.288 970.334 L 860 1010 L 840 1030 L 840 1050 L 860 1070 L 860 1080" id="path-69"></path>
        <path style="fill: none;" d="M 840.042 969.963 L 840 1000 L 820 1020 L 820 1080" id="path-70"></path>
        <path style="fill: none;" d="M 820.182 970.227 L 820 990 L 800 1010 L 800 1060" id="path-71"></path>
        <path style="fill: none;" d="M 800.19 970.14 L 800 980 L 790 990 L 760 990 L 740 970.334 L 690 969.906 L 640 1020 L 570 1020 L 510 1080" id="path-72"></path>
        <path style="fill: none;" d="M 780.345 950.066 L 680 949.936 L 630 1000 L 560 1000 L 480 1080" id="path-73"></path>
        <path style="fill: none;" d="M 780.132 929.97 L 460 930 L 410 980" id="path-74"></path>
        <path style="fill: none;" d="M 780.12 909.946 L 450 910 L 400 960" id="path-75"></path>
        <path style="fill: none;" d="M 780 890 L 511.875 890 L 450 890 L 310 750 L 310.046 630.049" id="path-76"></path>
        <path style="fill: none;" d="M 780 870 L 460 870 L 330 740 L 330.034 630.032" id="path-77"></path>
        <path style="fill: none;" d="M 780 850 L 470 850 L 350 730 L 350.032 630.083" id="path-78"></path>
        <path style="fill: none;" d="M 780 830 L 480 830 L 370 720.016 L 370.165 630.121" id="path-79"></path>
        <path style="fill: none;" d="M 780 810 L 490 810 L 390 710 L 390.126 630.033" id="path-80"></path>
        <path style="fill: none;" d="M 800.334 790.236 L 780 770 L 760 770 L 740 790 L 630 790 L 610 770" id="path-81"></path>
        <path style="fill: none;" d="M 400.267 619.965 L 410 630.032 L 410 700 L 500 790 L 540 790 L 560 770" id="path-82"></path>
        <path style="fill: none;" d="M 1920.01 340.007 L 1810 340" id="path-1000"></path>
        <path style="fill: none;" d="M 640.171 960.064 L 540 960 L 420 1080" id="path-1001"></path>
        <path style="fill: none;" d="M 450.067 1080.03 L 550 980 L 620 980" id="path-1002"></path>
        <path style="fill: none;" d="M 0.266 600.141 L 48.845 600.092 L 140 600" id="path-1003"></path>
        <path style="fill: none;" d="M 0.111 559.854 L 100 560" id="path-1004"></path>

    </g>

    <g id="interactive-layer">
        <path style="fill: none;" d="M 300.019 539.767 L 230 540 L 210 520 L 0 520" id="path-01"></path>
        <path style="fill: none;" d="M 300.082 559.828 L 140 560 L 120 540 L 0 540" id="path-02"></path>
        <path style="fill: none;" d="M 300.493 579.736 L 0 580" id="path-03"></path>
        <path style="fill: none;" d="M 300.7 600.194 L 180 600 L 160 619.965 L 30 619.965" id="path-04"></path>
        <path style="fill: none;" d="M 300.204 620.371 L 190 620 L 170 640 L 120 640 L 80 680" id="path-05"></path><path style="fill: none;" d="M 310.215 530.048 L 310 470 L 360 420 L 360 330 L 450 240 L 640 240" id="path-06"></path>
        <path style="fill: none;" d="M 330.076 529.974 L 330 480 L 380 430 L 380 340 L 460 260 L 640 260" id="path-07"></path>
        <path style="fill: none;" d="M 350.175 530.216 L 350 490 L 400 440 L 400 350 L 470 280 L 640 280" id="path-08"></path>
        <path style="fill: none;" d="M 370.202 530.063 L 370 500 L 420 450 L 420 360 L 480 300 L 640 300" id="path-09"></path>
        <path style="fill: none;" d="M 390.058 530.063 L 390 510 L 440 460 L 440 370 L 490 320 L 640 320" id="path-10"></path>
        <path style="fill: none;" d="M 400.032 540.214 L 410 530.216 L 410 520 L 460 470 L 510 470" id="path-11"></path>
        <path style="fill: none;" d="M 650.07 329.894 L 640 340 L 500 340 L 480 360 L 480 410" id="path-12"></path>
        <path style="fill: none;" d="M 649.958 230.027 L 650 190 L 610 150 L 610 100 L 570 60 L 570 0" id="path-13"></path>
        <path style="fill: none;" d="M 670.074 229.97 L 670 180 L 630 140 L 630 90 L 630 0" id="path-14"></path>
        <path style="fill: none;" d="M 689.929 230.059 L 690 140 L 670 120 L 670 70 L 689.672 50 L 689.672 0" id="path-15"></path>
        <path style="fill: none;" d="M 710.118 229.892 L 710 100 L 730 80" id="path-16"></path>
        <path style="fill: none;" d="M 730.137 229.986 L 730 110 L 750 90 L 750 20 L 730 0" id="path-17"></path>
        <path style="fill: none;" d="M 739.557 240.129 L 830 240 L 890 180 L 1020 180" id="path-18"></path>
        <path style="fill: none;" d="M 739.367 260.16 L 840 260 L 900 200 L 1020 200" id="path-19"></path>
        <path style="fill: none;" d="M 739.619 280.033 L 850 280 L 910 220 L 1020 220" id="path-20"></path>
        <path style="fill: none;" d="M 739.54 300.009 L 860 300 L 920 240.129 L 1020 240 L 1030 230.08" id="path-21"></path>
        <path style="fill: none;" d="M 739.556 319.814 L 870 320 L 930 260 L 970 260 L 990 280.033 L 1020 280" id="path-22"></path>
        <path style="fill: none;" d="M 1030.033 169.917 L 1030 150 L 970 90 L 970 0" id="path-23"></path>
        <path style="fill: none;" d="M 1050.064 170.1 L 1050 140 L 990 80 L 990 40 L 1010 20 L 1010 0" id="path-24"></path>
        <path style="fill: none;" d="M 1070.268 169.878 L 1070 130 L 1030 90 L 1030 0" id="path-25"></path>
        <path style="fill: none;" d="M 1090.098 170.09 L 1090 120 L 1070.268 100 L 1070 50" id="path-26"></path>
        <path style="fill: none;" d="M 1110.057 170.106 L 1110 50 L 1090.098 30" id="path-27"></path>
        <path style="fill: none;" d="M 1130.191 169.914 L 1130 70 L 1150 50 L 1149.996 0" id="path-28"></path>
        <path style="fill: none;" d="M 1149.996 170.131 L 1160 160 L 1470 160 L 1530 220 L 1530 290" id="path-29"></path>
        <path style="fill: none;" d="M 1160.2 179.929 L 1460 180 L 1510 230 L 1510 290" id="path-30"></path>
        <path style="fill: none;" d="M 1160.13 200.013 L 1450 200 L 1490 240 L 1490 290" id="path-31"></path>
        <path style="fill: none;" d="M 1160.15 220.031 L 1440 220 L 1470 250 L 1470 290" id="path-32"></path>
        <path style="fill: none;" d="M 1150.162 230.195 L 1160.2 240 L 1200 240 L 1220 260" id="path-33"></path>
        <path style="fill: none;" d="M 1130.087 229.999 L 1130 240 L 1150 260 L 1190 260.16 L 1210 280" id="path-34"></path>
        <path style="fill: none;" d="M 1550.158 289.948 L 1550 210 L 1530 190 L 1530 140 L 1550 120" id="path-35"></path>
        <path style="fill: none;" d="M 1570.16 289.994 L 1570 200 L 1550 179.929 L 1550.158 150 L 1570 130 L 1570 110" id="path-36"></path>
        <path style="fill: none;" d="M 1459.991 300.161 L 1420 300 L 1380 260 L 1340 260" id="path-37"></path>
        <path style="fill: none;" d="M 1460.012 320.082 L 1410 320 L 1370 280 L 1330 280" id="path-38"></path>
        <path style="fill: none;" d="M 1460.221 340.084 L 1400 340 L 1360 380 L 1330 380" id="path-39"></path>
        <path style="fill: none;" d="M 1580.456 300.123 L 1640 300 L 1680 260 L 1770 260 L 1790 280 L 1840 280" id="path-40"></path>
        <path style="fill: none;" d="M 1580.11 320.094 L 1770 320 L 1790 300 L 1920 300" id="path-41"></path>
        <path style="fill: none;" d="M 1580 340 L 1780 340 L 1800 320.094 L 1920 320.094" id="path-42"></path>
        <path style="fill: none;" d="M 1580.216 359.942 L 1850 360 L 1870 380 L 1920 380" id="path-43"></path>
        <path style="fill: none;" d="M 1579.947 379.989 L 1840 380 L 1860 400 L 1920 400" id="path-44"></path>
        <path style="fill: none;" d="M 1580.252 400.061 L 1620 400 L 1640 420 L 1680 420 L 1700 400 L 1830 400 L 1850 420 L 1920.01 420" id="path-45"></path>
        <path style="fill: none;" d="M 1470.157 410.319 L 1470 530 L 1500 560 L 1500 580 L 1470 610.013" id="path-46"></path>
        <path style="fill: none;" d="M 1490.083 410.215 L 1490 520 L 1520 550 L 1520 590 L 1490 620" id="path-47"></path>
        <path style="fill: none;" d="M 1510.127 410.281 L 1510 510 L 1540 540 L 1540 610 L 1550 620" id="path-48"></path>
        <path style="fill: none;" d="M 1530.1 409.939 L 1530 500 L 1560 530 L 1560 610" id="path-49"></path>
        <path style="fill: none;" d="M 1550.12 409.864 L 1550 490 L 1580 520 L 1580 610" id="path-50"></path>
        <path style="fill: none;" d="M 1570.59 410.338 L 1570 480 L 1600 510 L 1600 610" id="path-51"></path>
        <path style="fill: none;" d="M 1610.016 620.07 L 1770 620 L 1800 650 L 1920 650" id="path-52"></path>
        <path style="fill: none;" d="M 1610.293 639.93 L 1660 640 L 1690 670 L 1920 670" id="path-53"></path>
        <path style="fill: none;" d="M 1610.348 660.109 L 1650 660 L 1680 690 L 1820 690 L 1840 710 L 1920 710" id="path-54"></path>
        <path style="fill: none;" d="M 1610.221 680.087 L 1640 680 L 1700 740 L 1700 800.006 L 1740 840 L 1780 840" id="path-55"></path>
        <path style="fill: none;" d="M 1610.267 700.046 L 1630 700 L 1680 750 L 1680 810 L 1720 850" id="path-56"></path>
        <path style="fill: none;" d="M 1610.18 719.985 L 1620 720 L 1660 760 L 1660 810 L 1620 850 L 1560 850 L 1520 800 L 1320 800 L 1230 890 L 960 890" id="path-57"></path>
        <path style="fill: none;" d="M 1600.01 730.012 L 1600 750 L 1570 780 L 1310 780 L 1220 870 L 960 870" id="path-58"></path>
        <path style="fill: none;" d="M 1580.05 730.114 L 1580 740 L 1560 760 L 1300 760 L 1210 850 L 960 850" id="path-59"></path>
        <path style="fill: none;" d="M 1560.12 730.427 L 1550 740 L 1290 740 L 1200 830 L 960 830" id="path-60"></path>
        <path style="fill: none;" d="M 1550.12 719.972 L 1280 720 L 1190 810 L 960 810" id="path-61"></path>
        <path style="fill: none;" d="M 960.018 910.011 L 1040 910 L 1050 920 L 1150 920 L 1160 910 L 1240 910 L 1300 850" id="path-62"></path>
        <path style="fill: none;" d="M 960.286 929.893 L 980.021 930 L 1030 980 L 1030 1040 L 1070 1080" id="path-63"></path>
        <path style="fill: none;" d="M 960.349 949.984 L 970 950 L 1010 990 L 1010 1080" id="path-64"></path>
        <path style="fill: none;" d="M 940.206 969.989 L 940 990 L 990 1040 L 990 1080" id="path-65"></path>
        <path style="fill: none;" d="M 920.069 970.136 L 920 1000 L 970 1050 L 970 1070" id="path-66"></path>
        <path style="fill: none;" d="M 900.134 970.102 L 900 1010 L 950 1060 L 950 1070" id="path-67"></path>
        <path style="fill: none;" d="M 880.221 970.046 L 880 1080" id="path-68"></path>
        <path style="fill: none;" d="M 860.288 970.334 L 860 1010 L 840 1030 L 840 1050 L 860 1070 L 860 1080" id="path-69"></path>
        <path style="fill: none;" d="M 840.042 969.963 L 840 1000 L 820 1020 L 820 1080" id="path-70"></path>
        <path style="fill: none;" d="M 820.182 970.227 L 820 990 L 800 1010 L 800 1060" id="path-71"></path>
        <path style="fill: none;" d="M 800.19 970.14 L 800 980 L 790 990 L 760 990 L 740 970.334 L 690 969.906 L 640 1020 L 570 1020 L 510 1080" id="path-72"></path>
        <path style="fill: none;" d="M 780.345 950.066 L 680 949.936 L 630 1000 L 560 1000 L 480 1080" id="path-73"></path>
        <path style="fill: none;" d="M 780.132 929.97 L 460 930 L 410 980" id="path-74"></path>
        <path style="fill: none;" d="M 780.12 909.946 L 450 910 L 400 960" id="path-75"></path>
        <path style="fill: none;" d="M 780 890 L 511.875 890 L 450 890 L 310 750 L 310.046 630.049" id="path-76"></path>
        <path style="fill: none;" d="M 780 870 L 460 870 L 330 740 L 330.034 630.032" id="path-77"></path>
        <path style="fill: none;" d="M 780 850 L 470 850 L 350 730 L 350.032 630.083" id="path-78"></path>
        <path style="fill: none;" d="M 780 830 L 480 830 L 370 720.016 L 370.165 630.121" id="path-79"></path>
        <path style="fill: none;" d="M 780 810 L 490 810 L 390 710 L 390.126 630.033" id="path-80"></path>
        <path style="fill: none;" d="M 800.334 790.236 L 780 770 L 760 770 L 740 790 L 630 790 L 610 770" id="path-81"></path>
        <path style="fill: none;" d="M 400.267 619.965 L 410 630.032 L 410 700 L 500 790 L 540 790 L 560 770" id="path-82"></path>
        <path style="fill: none;" d="M 1920.01 340.007 L 1810 340" id="path-1000"></path>
        <path style="fill: none;" d="M 640.171 960.064 L 540 960 L 420 1080" id="path-1001"></path>
        <path style="fill: none;" d="M 450.067 1080.03 L 550 980 L 620 980" id="path-1002"></path>
        <path style="fill: none;" d="M 0.266 600.141 L 48.845 600.092 L 140 600" id="path-1003"></path>
        <path style="fill: none;" d="M 0.111 559.854 L 100 560" id="path-1004"></path>
    </g>

    <g id="chips">
        <rect class="chip" x="640" y="230" width="99.344" height="100" id="chip-01"></rect>
        <rect class="chip" x="1020" y="170" width="140" height="60" id="chip-02"></rect>
        <rect class="chip" x="1460" y="290" width="120" height="120" id="chip-03"></rect>
        <rect class="chip" x="1550" y="610.013" width="60" height="120" id="chip-04"></rect>
        <rect class="chip" x="780" y="790" width="180" height="180" id="chip-05"></rect>
        <rect class="chip" x="300.923" y="529.736" width="99.344" height="100" id="chip-06"></rect>
    </g>

    <script>
    <![CDATA[
        const interactive = document.querySelector('#interactive-layer');
        const chips = document.querySelector('#chips');
        const pulses = document.querySelector('#pulses');
        const paths = document.querySelector('#paths');
        const svg = document.querySelector('svg');
        const svgNS = "http://www.w3.org/2000/svg";

        let counter = 1;
        addEventListener('click', (event) => {
            const allTargets = document.elementsFromPoint(event.clientX, event.clientY);
            const pathTargets = allTargets.filter(l => {
                return interactive.contains(l);
            })

            const chipTargets = allTargets.filter(l => {
                return chips.contains(l);
            })

            chipTargets.forEach(chip => {
                chipPulse(chip);
            });

            pathTargets.forEach(path => {
                animatePulse(path, event.clientX, event.clientY);
            });
        });

        let lastMove = 0;
        addEventListener('mouseover', (event) => {
            const now = Date.now();
            if (now - lastMove < 100) return;
            const allTargets = document.elementsFromPoint(event.clientX, event.clientY);
            const filteredTargets = allTargets.filter(l => {
                return interactive.contains(l);
            })
            filteredTargets.forEach(path => {
                animatePulse(path, event.clientX, event.clientY);
            });
        })

        function chipPulse(chip){
            const chipId = chip.getAttribute('id');
            const chipPulses = document.querySelector(`#${chipId}-pulses`);
            const keyframes = [
            {strokeDashoffset: 60, offset: 0},
            {strokeDashoffset: -1000, offset: 0.4},
            {strokeDashoffset: -1000, offset: 1}
            ];
            if(chipPulses){
                const animation = chipPulses.animate(keyframes, {
                    duration: 3000
                });
            }
            console.log(`${chipId}-pulses`);
        }

        function animatePulse(clickedPath, clickedX, clickedY){
            if (pulses.childElementCount > 20) return;
            let pt = svg.createSVGPoint();
            pt.x = clickedX;
            pt.y = clickedY;
            let svgP = pt.matrixTransform(svg.getScreenCTM().inverse());

            const pathId = clickedPath.id;
            const pathData = clickedPath.getAttribute('d');
            const pathDataArr = pathData.split(" ");

            let pathLength = clickedPath.getTotalLength();
            let pulseBegin = getLengthAtClick(clickedPath, svgP.x, svgP.y);

            const pulseWidth = 40;
            const newPulse = document.createElementNS(svgNS, "path");
            newPulse.setAttribute("d", pathData);
            newPulse.setAttribute("stroke", "#4e91fd8f");
            newPulse.setAttribute("filter", "url(#glow)");
            newPulse.setAttribute("stroke-width", "4");
            newPulse.setAttribute("stroke-linecap", "round");
            newPulse.setAttribute("fill", "none")
            newPulse.style.strokeDasharray = `${pulseWidth}, ${pathLength}`;

            pulses.appendChild(newPulse);
            
            let keyframes;
            let dist;
            if (pulseBegin/pathLength < 0.5){
                keyframes = [
                    {strokeDashoffset: -pulseBegin, strokeOpacity: 0, offset: 0},
                    {strokeOpacity: 0.3, offset: 0.05},
                    {strokeDashoffset: -pathLength, strokeOpacity: 0.3, offset: 1}
                ];
                dist = (pathLength - pulseBegin)*1.5;
            }
            else{
                keyframes = [
                    {strokeDashoffset: -pulseBegin+pulseWidth, strokeOpacity: 0, offset: 0},
                    {strokeOpacity: 0.3, offset: 0.05,},
                    {strokeDashoffset: pulseWidth, strokeOpacity: 0.3, offset: 1}
                ];
                dist = pulseBegin *1.5;
            }

            const animation = newPulse.animate(keyframes, {
                duration: dist
            });
            
            animation.onfinish = () => newPulse.remove();
            counter += 1;
        }


        function getLengthAtClick(path, x, y, precision = 2){
            const totalLength = path.getTotalLength();
            let bestDistance = 0;
            let minDiff = Infinity;

            for(let i = 0; i <= totalLength; i += precision){
                const point = path.getPointAtLength(i)

                const dx = x - point.x;
                const dy = y - point.y;
                const diffSq = dx * dx + dy * dy

                if (diffSq < minDiff){
                    minDiff = diffSq;
                    bestDistance = i;
                }
            }
            return bestDistance;
        }
    ]]>
    </script>
</svg>


